# Blender v2.79 (sub 0) OBJ File: ''
# www.blender.org
mtllib colorblock.mtl
o Cube.001_Cube.002
v 0.000000 -0.012594 0.016733
v -0.478635 -0.031479 0.016730
v -0.478242 -0.047217 0.485178
v 0.000000 -0.031479 0.487430
v 0.478242 -0.047217 0.476879
v 0.478635 -0.031479 0.016379
v 0.478242 -0.047217 -0.444579
v 0.000000 -0.031479 -0.454537
v -0.478242 -0.047217 -0.452253
v 0.000000 -0.556943 -0.775269
v 0.499470 -0.556943 -0.743601
v 0.493868 -0.862351 -0.723055
v 0.000000 -0.863302 -0.750722
v -0.493868 -0.862352 -0.726148
v -0.499470 -0.556943 -0.745481
v -0.493868 -0.244681 -0.726148
v 0.000000 -0.243108 -0.750722
v 0.493868 -0.244681 -0.723055
v -0.891902 -0.556943 0.015521
v -0.858011 -0.556943 -0.428634
v -0.825948 -0.862352 -0.430285
v -0.853844 -0.863302 0.015702
v -0.825948 -0.862352 0.461412
v -0.858011 -0.556943 0.459405
v -0.825948 -0.244681 0.461412
v -0.853844 -0.243108 0.015702
v -0.825948 -0.244681 -0.430285
v -0.700037 -0.113315 0.664406
v -0.729761 -0.094430 0.467431
v -0.742262 -0.249403 0.680660
v -0.477061 -0.094430 0.699467
v -0.700037 -0.980633 0.664406
v -0.742262 -0.859500 0.680660
v -0.729761 -0.992041 0.467431
v 0.700037 -0.113315 0.653305
v 0.729761 -0.094430 0.456217
v 0.477061 -0.094430 0.692343
v -0.700037 -0.113315 -0.633119
v -0.742262 -0.249403 -0.650369
v -0.729761 -0.094430 -0.435241
v -0.477061 -0.094430 -0.668148
v -0.700037 -0.980633 -0.633119
v -0.477061 -0.992041 -0.668148
v -0.729761 -0.992041 -0.435241
v -0.742262 -0.859500 -0.650369
v 0.700037 -0.113315 -0.622626
v 0.742262 -0.249403 -0.642106
v 0.477061 -0.094430 -0.661414
v 0.729761 -0.094430 -0.424861
v 0.700037 -0.980633 -0.622626
v 0.477061 -0.992041 -0.661414
v 0.742262 -0.859500 -0.642106
v -0.756337 -0.556943 0.686077
v 0.000000 -0.088135 0.708255
v 0.756337 -0.556943 -0.648600
v 0.739669 -0.088135 0.015791
v 0.000000 -0.995843 -0.677084
v -0.756337 -0.556943 -0.656119
v 0.000000 -0.088135 -0.677084
v -0.739669 -0.995843 0.016246
v -0.739669 -0.088135 0.016246
v 0.891902 -0.556943 0.015087
v 0.858011 -0.556943 0.449354
v 0.825948 -0.862352 0.451070
v 0.853844 -0.863302 0.015263
v 0.825948 -0.862352 -0.420723
v 0.858011 -0.556943 -0.419343
v 0.825948 -0.244681 -0.420723
v 0.853844 -0.243108 0.015263
v 0.825948 -0.244681 0.451070
v 0.700037 -0.113315 0.653305
v 0.742262 -0.249403 0.671919
v 0.729761 -0.094430 0.456217
v 0.700037 -0.980633 0.653305
v 0.729761 -0.992041 0.456217
v 0.742262 -0.859500 0.671919
v 0.700037 -0.113315 -0.622626
v 0.729761 -0.094430 -0.424861
v 0.742262 -0.249403 -0.642106
v 0.700037 -0.980633 -0.622626
v 0.742262 -0.859500 -0.642106
v 0.729761 -0.992041 -0.424861
v 0.756337 -0.556943 0.678124
v 0.739669 -0.995843 0.015791
v 0.756337 -0.556943 -0.648600
v 0.739669 -0.088135 0.015791
vt 0.473632 0.808012
vt 0.243811 0.809121
vt 0.247139 0.891780
vt 0.476602 0.891103
vt 0.705983 0.888105
vt 0.703434 0.806844
vt 0.700197 0.725502
vt 0.470672 0.724819
vt 0.241225 0.726361
vt 0.501939 0.382395
vt 0.806415 0.385087
vt 0.801520 0.600653
vt 0.500465 0.598635
vt 0.199575 0.594860
vt 0.197646 0.379217
vt 0.202693 0.158493
vt 0.503596 0.160485
vt 0.804638 0.164286
vt 0.933184 0.852724
vt 0.933404 0.853060
vt 0.940609 0.826854
vt 0.940411 0.826437
vt 0.940171 0.826187
vt 0.932966 0.852393
vt 0.925600 0.879185
vt 0.925781 0.879652
vt 0.926038 0.879852
vt 0.922398 0.890316
vt 0.922050 0.892086
vt 0.925600 0.878624
vt 0.138755 0.925103
vt 0.247646 0.930694
vt 0.123501 0.889816
vt 0.942861 0.815882
vt 0.939994 0.826267
vt 0.943229 0.815049
vt 0.816728 0.919867
vt 0.829436 0.884427
vt 0.708299 0.927213
vt 0.928169 0.850325
vt 0.937217 0.844810
vt 0.940950 0.850824
vt 0.933103 0.861228
vt 0.130491 0.693810
vt 0.117766 0.729392
vt 0.238946 0.687176
vt 0.077991 0.063735
vt 0.213866 0.051984
vt 0.051521 0.159765
vt 0.965266 0.757318
vt 0.970368 0.763040
vt 0.964853 0.787220
vt 0.961312 0.776102
vt 0.049655 0.725491
vt 0.048441 0.590782
vt 0.209335 0.686122
vt 0.931241 0.071899
vt 0.956228 0.168445
vt 0.793684 0.045879
vt 0.808628 0.692401
vt 0.699713 0.686146
vt 0.823863 0.727826
vt 0.951666 0.704089
vt 0.790806 0.691689
vt 0.963897 0.607243
vt 0.932854 0.852223
vt 0.478061 0.931390
vt 0.969022 0.372230
vt 0.831910 0.806122
vt 0.500015 0.691689
vt 0.949403 0.810256
vt 0.953905 0.820091
vt 0.041374 0.376997
vt 0.469246 0.684235
vt 0.504597 0.034855
vt 0.943539 0.815057
vt 0.943672 0.815724
vt 0.115332 0.809656
vt 0.922124 0.892953
vt 0.922493 0.892761
vt 0.953669 0.801058
vt 0.955706 0.804205
vt 0.941630 0.854654
vt 0.939546 0.851675
vt 0.937556 0.848360
vt 0.951631 0.797911
vt 0.966028 0.746311
vt 0.968139 0.749194
vt 0.970102 0.752605
vt 0.977095 0.732335
vt 0.970919 0.754963
vt 0.977054 0.727812
vt 0.937109 0.875654
vt 0.935676 0.876117
vt 0.942794 0.855766
vt 0.971090 0.702885
vt 0.977543 0.712597
vt 0.973315 0.745800
vt 0.964783 0.745486
vt 0.917884 0.868061
vt 0.936659 0.846289
vt 0.935791 0.867490
vt 0.913209 0.884283
vt 0.956760 0.805833
vt 0.933441 0.873556
vt 0.931554 0.869750
vt 0.950553 0.796245
vt 0.956952 0.804448
vt 0.975287 0.723574
vt 0.972932 0.721445
vn 0.0002 1.0000 0.0000
vn -0.1181 0.9930 0.0000
vn -0.1037 0.9876 0.1176
vn 0.0010 0.9907 0.1357
vn 0.1053 0.9875 0.1172
vn 0.1183 0.9930 0.0000
vn 0.1051 0.9876 -0.1166
vn 0.0009 0.9908 -0.1348
vn -0.1036 0.9877 -0.1168
vn 0.0025 -0.0008 -1.0000
vn 0.1968 -0.0007 -0.9804
vn 0.1730 -0.2358 -0.9563
vn 0.0035 -0.2680 -0.9634
vn -0.1609 -0.2262 -0.9607
vn -0.1850 -0.0006 -0.9827
vn -0.1624 0.2030 -0.9656
vn 0.0035 0.2394 -0.9709
vn 0.1747 0.2119 -0.9615
vn -1.0000 -0.0013 0.0000
vn -0.9740 -0.0010 -0.2265
vn -0.9239 -0.3328 -0.1884
vn -0.9246 -0.3809 0.0000
vn -0.9240 -0.3324 0.1888
vn -0.9739 -0.0010 0.2270
vn -0.9337 0.3024 0.1918
vn -0.9379 0.3468 0.0000
vn -0.9336 0.3028 -0.1913
vn -0.5560 0.7964 0.2378
vn -0.5723 0.8089 0.1346
vn -0.9103 0.2515 0.3287
vn -0.0865 0.9755 0.2023
vn -0.8443 -0.4759 0.2463
vn -0.9043 -0.2790 0.3230
vn -0.8206 -0.5524 0.1466
vn 0.1567 0.9733 0.1677
vn 0.1808 0.9794 0.0900
vn 0.0889 0.9753 0.2022
vn -0.4851 0.6774 -0.5529
vn -0.6738 0.2304 -0.7020
vn -0.5717 0.8094 -0.1338
vn -0.1220 0.7506 -0.6494
vn -0.5817 -0.4492 -0.6781
vn -0.8200 -0.5535 -0.1455
vn -0.6703 -0.2554 -0.6967
vn -0.1235 -0.3959 -0.9099
vn 0.2347 0.7389 -0.6316
vn 0.2957 0.1691 -0.9402
vn 0.1303 0.7548 -0.6428
vn 0.1805 0.9795 -0.0898
vn 0.2406 -0.3495 -0.9055
vn 0.1359 -0.4109 -0.9015
vn 0.2931 -0.1867 -0.9377
vn -0.9232 -0.0007 0.3844
vn 0.0017 0.9727 0.2319
vn 0.3292 -0.0005 -0.9442
vn 0.1996 0.9799 0.0000
vn 0.0045 -0.4555 -0.8902
vn -0.6833 -0.0006 -0.7301
vn 0.0035 0.7663 -0.6425
vn -0.7804 -0.6253 0.0001
vn -0.5538 0.8326 0.0000
vn 1.0000 -0.0013 0.0000
vn 0.9740 -0.0010 0.2265
vn 0.9238 -0.3331 0.1885
vn 0.9246 -0.3809 0.0000
vn 0.9238 -0.3334 -0.1883
vn 0.9741 -0.0010 -0.2262
vn 0.9334 0.3034 -0.1913
vn 0.9379 0.3468 0.0000
vn 0.9335 0.3030 0.1915
vn 0.8648 0.4302 0.2589
vn 0.9107 0.2521 0.3271
vn 0.8516 0.5014 0.1531
vn 0.8432 -0.4784 0.2451
vn 0.8197 -0.5538 0.1460
vn 0.9048 -0.2794 0.3215
vn 0.8643 0.4316 -0.2582
vn 0.8511 0.5024 -0.1523
vn 0.9108 0.2526 -0.3265
vn 0.8426 -0.4799 -0.2443
vn 0.9048 -0.2799 -0.3209
vn 0.8191 -0.5549 -0.1451
vn 0.9243 -0.0007 0.3816
vn 0.7803 -0.6253 0.0001
vn 0.9246 -0.0007 -0.3809
vn 0.8237 0.5670 0.0001
usemtl Material.003
s 1
f 1/1/1 2/2/2 3/3/3 4/4/4
f 1/1/1 4/4/4 5/5/5 6/6/6
f 1/1/1 6/6/6 7/7/7 8/8/8
f 1/1/1 8/8/8 9/9/9 2/2/2
f 10/10/10 11/11/11 12/12/12 13/13/13
f 10/10/10 13/13/13 14/14/14 15/15/15
f 10/10/10 15/15/15 16/16/16 17/17/17
f 10/10/10 17/17/17 18/18/18 11/11/11
f 19/19/19 20/20/20 21/21/21 22/22/22
f 19/19/19 22/22/22 23/23/23 24/24/24
f 19/19/19 24/24/24 25/25/25 26/26/26
f 19/19/19 26/26/26 27/27/27 20/20/20
f 28/28/28 29/29/29 25/25/25 30/30/30
f 28/31/28 31/32/31 3/3/3 29/33/29
f 32/34/32 33/35/33 23/23/23 34/36/34
f 35/37/35 36/38/36 5/5/5 37/39/37
f 38/40/38 39/41/39 27/42/27 40/43/40
f 38/44/38 40/45/40 9/9/9 41/46/41
f 38/47/38 41/48/41 16/16/16 39/49/39
f 42/50/42 44/51/43 21/52/21 45/53/44
f 42/54/42 45/55/44 14/14/14 43/56/45
f 46/57/46 47/58/47 18/18/18 48/59/48
f 46/60/46 48/61/48 7/7/7 49/62/49
f 50/63/50 51/64/51 12/12/12 52/65/52
f 53/66/53 30/30/30 25/25/25 24/24/24
f 53/66/53 24/24/24 23/23/23 33/35/33
f 54/67/54 37/39/37 5/5/5 4/4/4
f 54/67/54 4/4/4 3/3/3 31/32/31
f 55/68/55 52/65/52 12/12/12 11/11/11
f 55/68/55 11/11/11 18/18/18 47/58/47
f 56/69/56 49/62/49 7/7/7 6/6/6
f 56/69/56 6/6/6 5/5/5 36/38/36
f 57/70/57 43/56/45 14/14/14 13/13/13
f 57/70/57 13/13/13 12/12/12 51/64/51
f 58/71/58 45/53/44 21/52/21 20/72/20
f 58/71/58 20/72/20 27/42/27 39/41/39
f 58/73/58 39/49/39 16/16/16 15/15/15
f 58/73/58 15/15/15 14/14/14 45/55/44
f 59/74/59 41/46/41 9/9/9 8/8/8
f 59/74/59 8/8/8 7/7/7 48/61/48
f 59/75/59 48/59/48 18/18/18 17/17/17
f 59/75/59 17/17/17 16/16/16 41/48/41
f 60/76/60 34/36/34 23/23/23 22/22/22
f 60/76/60 22/22/22 21/21/21 44/77/43
f 61/78/61 29/33/29 3/3/3 2/2/2
f 61/78/61 2/2/2 9/9/9 40/45/40
f 61/79/61 40/80/40 27/27/27 26/26/26
f 61/79/61 26/26/26 25/25/25 29/29/29
f 62/81/62 63/82/63 64/83/64 65/84/65
f 62/81/62 65/84/65 66/85/66 67/86/67
f 62/81/62 67/86/67 68/87/68 69/88/69
f 62/81/62 69/88/69 70/89/70 63/82/63
f 71/90/71 72/91/72 70/89/70 73/92/73
f 74/93/74 75/94/75 64/83/64 76/95/76
f 77/96/77 78/97/78 68/98/68 79/99/79
f 80/100/80 81/101/81 66/102/66 82/103/82
f 83/104/83 76/95/76 64/83/64 63/82/63
f 83/104/83 63/82/63 70/89/70 72/91/72
f 84/105/84 82/106/82 66/85/66 65/84/65
f 84/105/84 65/84/65 64/83/64 75/94/75
f 85/107/85 79/99/79 68/98/68 67/108/67
f 85/107/85 67/108/67 66/102/66 81/101/81
f 86/109/86 73/92/73 70/89/70 69/88/69
f 86/109/86 69/88/69 68/87/68 78/110/78
o Cube.001_Cube.000
v -0.478242 0.047217 -0.444579
v 0.000000 0.031479 -0.454537
v 0.478242 0.047217 -0.452253
v 0.000000 0.556943 -0.775269
v -0.499470 0.556943 -0.743601
v -0.493868 0.862351 -0.723055
v 0.000000 0.863302 -0.750722
v 0.493868 0.862352 -0.726148
v 0.499470 0.556943 -0.745481
v 0.493868 0.244681 -0.726148
v 0.000000 0.243108 -0.750722
v -0.493868 0.244681 -0.723055
v 0.000000 1.041476 0.016733
v 0.478635 1.030068 0.016730
v 0.478242 1.020561 -0.452253
v 0.000000 1.030068 -0.454537
v -0.478242 1.020561 -0.444579
v -0.478635 1.030068 0.016379
v -0.478242 1.020561 0.476879
v 0.000000 1.030068 0.487430
v 0.478242 1.020561 0.485178
v 0.891902 0.556943 0.015521
v 0.858011 0.556943 -0.428634
v 0.825948 0.862352 -0.430285
v 0.853844 0.863302 0.015702
v 0.825948 0.862352 0.461412
v 0.858011 0.556943 0.459405
v 0.825948 0.244681 0.461412
v 0.853844 0.243108 0.015702
v 0.825948 0.244681 -0.430285
v 0.700037 0.113315 0.664406
v 0.729761 0.094430 0.467431
v 0.742262 0.249403 0.680660
v 0.700037 0.980633 0.664406
v 0.742262 0.859500 0.680660
v 0.729761 0.992041 0.467431
v 0.477061 0.992041 0.699467
v -0.700037 0.980633 0.653305
v -0.477061 0.992041 0.692343
v -0.729761 0.992041 0.456217
v 0.700037 0.113315 -0.633119
v 0.742262 0.249403 -0.650369
v 0.729761 0.094430 -0.435241
v 0.477061 0.094430 -0.668148
v 0.700037 0.980633 -0.633119
v 0.477061 0.992041 -0.668148
v 0.729761 0.992041 -0.435241
v 0.742262 0.859500 -0.650369
v -0.700037 0.113315 -0.622626
v -0.742262 0.249403 -0.642106
v -0.477061 0.094430 -0.661414
v -0.729761 0.094430 -0.424861
v -0.700037 0.980633 -0.622626
v -0.729761 0.992041 -0.424861
v -0.477061 0.992041 -0.661414
v -0.742262 0.859500 -0.642106
v 0.756337 0.556943 0.686077
v 0.000000 0.995843 0.708255
v -0.739669 0.995843 0.015791
v -0.756337 0.556943 -0.648600
v 0.000000 0.995843 -0.677084
v 0.756337 0.556943 -0.656119
v 0.000000 0.088135 -0.677084
v 0.739669 0.995843 0.016246
v 0.739669 0.088135 0.016246
v -0.891902 0.556943 0.015087
v -0.858011 0.556943 0.449354
v -0.825948 0.862352 0.451070
v -0.853844 0.863302 0.015263
v -0.825948 0.862352 -0.420723
v -0.858011 0.556943 -0.419343
v -0.825948 0.244681 -0.420723
v -0.853844 0.243108 0.015263
v -0.825948 0.244681 0.451070
v -0.700037 0.113315 0.653305
v -0.742262 0.249403 0.671919
v -0.729761 0.094430 0.456217
v -0.700037 0.980633 0.653305
v -0.729761 0.992041 0.456217
v -0.742262 0.859500 0.671919
v -0.700037 0.113315 -0.622626
v -0.729761 0.094430 -0.424861
v -0.742262 0.249403 -0.642106
v -0.700037 0.980633 -0.622626
v -0.742262 0.859500 -0.642106
v -0.729761 0.992041 -0.424861
v -0.756337 0.556943 0.678124
v -0.739669 0.995843 0.015791
v -0.756337 0.556943 -0.648600
v -0.739669 0.088135 0.015791
vt 0.501939 0.382395
vt 0.806415 0.385087
vt 0.801520 0.600653
vt 0.500465 0.598635
vt 0.199575 0.594860
vt 0.197646 0.379217
vt 0.202693 0.158493
vt 0.503596 0.160485
vt 0.804638 0.164286
vt 0.490476 0.827126
vt 0.210536 0.827264
vt 0.210377 0.748392
vt 0.490005 0.747857
vt 0.769645 0.749405
vt 0.770408 0.826928
vt 0.841995 0.773830
vt 0.897338 0.727136
vt 0.937256 0.717901
vt 0.858142 0.821381
vt 0.778880 0.924250
vt 0.762670 0.876925
vt 0.948160 0.815910
vt 0.947659 0.814897
vt 0.925902 0.874535
vt 0.926336 0.875735
vt 0.926899 0.876549
vt 0.948656 0.816910
vt 0.970899 0.755938
vt 0.970517 0.754627
vt 0.969902 0.753924
vt 0.980495 0.730720
vt 0.981619 0.726581
vt 0.970818 0.757338
vt 0.918698 0.900115
vt 0.927350 0.876491
vt 0.917662 0.901900
vt 0.071331 0.905536
vt 0.053868 0.872209
vt 0.202232 0.874921
vt 0.202495 0.911343
vt 0.859138 0.895169
vt 0.772319 0.920159
vt 0.770565 0.904374
vt 0.900670 0.863033
vt 0.937240 0.833620
vt 0.948226 0.804793
vt 0.953658 0.810022
vt 0.946102 0.842238
vt 0.259300 0.032300
vt 0.249400 0.025700
vt 0.333300 0.009100
vt 0.333700 0.025700
vt 0.077991 0.063735
vt 0.213866 0.051984
vt 0.051521 0.159765
vt 0.079107 0.717632
vt 0.210203 0.711701
vt 0.062046 0.751128
vt 0.973645 0.675818
vt 0.980779 0.679797
vt 0.976591 0.714004
vt 0.970810 0.702180
vt 0.049655 0.725491
vt 0.048441 0.590782
vt 0.209335 0.686122
vt 0.931241 0.071899
vt 0.956228 0.168445
vt 0.793684 0.045879
vt 0.726400 0.032300
vt 0.652000 0.025700
vt 0.652400 0.009100
vt 0.736300 0.025700
vt 0.900564 0.718993
vt 0.918016 0.752452
vt 0.769397 0.712558
vt 0.951666 0.704089
vt 0.790806 0.691689
vt 0.963897 0.607243
vt 0.948910 0.817424
vt 0.888820 0.884475
vt 0.781377 0.934475
vt 0.938803 0.721729
vt 0.924482 0.826754
vt 0.899107 0.883866
vt 0.969022 0.372230
vt 0.489788 0.709969
vt 0.500015 0.691689
vt 0.959671 0.753143
vt 0.966521 0.762723
vt 0.041374 0.376997
vt 0.492900 0.023500
vt 0.492900 0.003600
vt 0.504597 0.034855
vt 0.056461 0.827260
vt 0.211326 0.906046
vt 0.062962 0.903334
vt 0.916888 0.901631
vt 0.916652 0.899860
vt 0.981559 0.724359
vt 0.980610 0.724542
vt 0.946894 0.813328
vt 0.949048 0.816259
vt 0.934989 0.866208
vt 0.930850 0.858721
vt 0.933738 0.866829
vt 0.931628 0.863720
vt 0.944741 0.810396
vt 0.958153 0.755856
vt 0.960375 0.758509
vt 0.962460 0.761719
vt 0.969092 0.740114
vt 0.963350 0.764013
vt 0.968939 0.735510
vt 0.941458 0.852486
vt 0.940009 0.853151
vt 0.945553 0.830470
vt 0.946767 0.831446
vt 0.962251 0.710911
vt 0.969066 0.719937
vt 0.965568 0.754349
vt 0.960798 0.741463
vt 0.933847 0.849335
vt 0.945644 0.812357
vt 0.949229 0.824884
vt 0.940677 0.847224
vt 0.959781 0.778664
vt 0.958666 0.777146
vt 0.950162 0.817777
vt 0.937669 0.850844
vt 0.935652 0.847219
vt 0.941247 0.824607
vt 0.943356 0.827716
vt 0.945365 0.811903
vt 0.950324 0.816339
vt 0.955334 0.770974
vt 0.959543 0.775666
vt 0.967034 0.731430
vt 0.964582 0.729578
vn -0.0025 0.0008 -1.0000
vn -0.1968 0.0007 -0.9804
vn -0.1730 0.2358 -0.9563
vn -0.0035 0.2680 -0.9634
vn 0.1609 0.2262 -0.9607
vn 0.1850 0.0006 -0.9827
vn 0.1624 -0.2030 -0.9656
vn -0.0035 -0.2394 -0.9709
vn -0.1747 -0.2119 -0.9615
vn -0.0001 1.0000 0.0000
vn 0.0720 0.9974 0.0000
vn 0.0633 0.9954 -0.0715
vn -0.0005 0.9966 -0.0825
vn -0.0642 0.9954 -0.0713
vn -0.0722 0.9974 0.0000
vn -0.0644 0.9953 0.0717
vn -0.0006 0.9965 0.0831
vn 0.0634 0.9954 0.0720
vn 1.0000 0.0013 0.0000
vn 0.9740 0.0010 -0.2265
vn 0.9239 0.3328 -0.1884
vn 0.9246 0.3809 0.0000
vn 0.9240 0.3324 0.1888
vn 0.9739 0.0010 0.2270
vn 0.9337 -0.3024 0.1918
vn 0.9379 -0.3468 0.0000
vn 0.9336 -0.3028 -0.1913
vn 0.8657 -0.4277 0.2601
vn 0.8523 -0.5000 0.1536
vn 0.9103 -0.2515 0.3287
vn 0.5083 0.8393 0.1929
vn 0.9043 0.2790 0.3230
vn 0.5211 0.8460 0.1123
vn 0.0528 0.9908 0.1243
vn -0.0963 0.9900 0.1030
vn -0.0543 0.9908 0.1241
vn -0.1107 0.9923 0.0549
vn 0.4851 -0.6774 -0.5529
vn 0.6738 -0.2304 -0.7020
vn 0.6923 -0.7011 -0.1704
vn 0.0905 -0.9758 -0.1990
vn 0.1220 -0.7506 -0.6494
vn 0.4503 0.7244 -0.5218
vn 0.1022 0.7904 -0.6039
vn 0.5205 0.8465 -0.1115
vn 0.6703 0.2554 -0.6967
vn -0.2347 -0.7389 -0.6316
vn -0.2957 -0.1691 -0.9402
vn -0.1303 -0.7548 -0.6428
vn -0.0938 -0.9756 -0.1983
vn -0.1562 -0.9735 -0.1668
vn -0.1975 0.7803 -0.5933
vn -0.1105 0.9923 -0.0548
vn -0.1098 0.7950 -0.5966
vn -0.2931 0.1867 -0.9377
vn 0.9232 0.0007 0.3844
vn -0.0011 0.9898 0.1426
vn -0.1221 0.9925 0.0000
vn -0.3292 0.0005 -0.9442
vn -0.0031 0.8111 -0.5849
vn 0.6833 0.0006 -0.7301
vn -0.0035 -0.7663 -0.6425
vn -0.0019 -0.9731 -0.2304
vn 0.4903 0.8715 0.0000
vn 0.8237 -0.5670 0.0001
vn -1.0000 0.0013 0.0000
vn -0.9740 0.0010 0.2265
vn -0.9238 0.3331 0.1885
vn -0.9246 0.3809 0.0000
vn -0.9238 0.3334 -0.1883
vn -0.9741 0.0010 -0.2262
vn -0.9334 -0.3034 -0.1913
vn -0.9379 -0.3468 0.0000
vn -0.9335 -0.3031 0.1915
vn -0.8648 -0.4302 0.2589
vn -0.9107 -0.2521 0.3271
vn -0.8516 -0.5014 0.1531
vn -0.8432 0.4784 0.2451
vn -0.8197 0.5538 0.1460
vn -0.9048 0.2794 0.3215
vn -0.8643 -0.4316 -0.2582
vn -0.8511 -0.5024 -0.1523
vn -0.9108 -0.2526 -0.3265
vn -0.8426 0.4799 -0.2443
vn -0.9048 0.2799 -0.3209
vn -0.8191 0.5549 -0.1451
vn -0.9243 0.0007 0.3816
vn -0.7803 0.6253 0.0001
vn -0.9246 0.0007 -0.3809
vn -0.8237 -0.5670 0.0001
usemtl Material.002
s 1
f 90/111/87 91/112/88 92/113/89 93/114/90
f 90/111/87 93/114/90 94/115/91 95/116/92
f 90/111/87 95/116/92 96/117/93 97/118/94
f 90/111/87 97/118/94 98/119/95 91/112/88
f 99/120/96 100/121/97 101/122/98 102/123/99
f 99/120/96 102/123/99 103/124/100 104/125/101
f 99/126/96 104/127/101 105/128/102 106/129/103
f 99/126/96 106/129/103 107/130/104 100/131/97
f 108/132/105 109/133/106 110/134/107 111/135/108
f 108/132/105 111/135/108 112/136/109 113/137/110
f 108/132/105 113/137/110 114/138/111 115/139/112
f 108/132/105 115/139/112 116/140/113 109/133/106
f 117/141/114 118/142/115 114/138/111 119/143/116
f 120/144/117 121/145/118 112/136/109 122/146/119
f 120/147/117 122/148/119 107/149/104 123/150/120
f 124/151/121 125/152/122 105/153/102 126/154/123
f 127/155/124 128/156/125 116/157/113 129/158/126
f 127/159/124 129/160/126 89/161/127 130/162/128
f 127/163/124 130/164/128 96/117/93 128/165/125
f 131/166/129 132/167/130 101/122/98 133/168/131
f 131/169/129 133/170/131 110/171/107 134/172/132
f 131/173/129 134/174/132 94/115/91 132/175/130
f 135/176/133 136/177/134 98/119/95 137/178/135
f 135/179/133 137/180/135 87/181/136 138/182/137
f 139/183/138 140/184/139 103/124/100 141/185/140
f 139/186/138 141/187/140 92/113/89 142/188/141
f 143/189/142 119/143/116 114/138/111 113/137/110
f 143/189/142 113/137/110 112/136/109 121/145/118
f 144/190/143 123/191/120 107/130/104 106/129/103
f 144/190/143 106/129/103 105/128/102 125/192/122
f 145/193/144 126/194/123 105/153/102 104/125/101
f 145/193/144 104/125/101 103/124/100 140/184/139
f 146/195/145 142/188/141 92/113/89 91/112/88
f 146/195/145 91/112/88 98/119/95 136/177/134
f 147/196/146 141/185/140 103/124/100 102/123/99
f 147/196/146 102/123/99 101/122/98 132/167/130
f 147/197/146 132/175/130 94/115/91 93/114/90
f 147/197/146 93/114/90 92/113/89 141/187/140
f 148/198/147 134/172/132 110/171/107 109/199/106
f 148/198/147 109/199/106 116/157/113 128/156/125
f 148/200/147 128/165/125 96/117/93 95/116/92
f 148/200/147 95/116/92 94/115/91 134/174/132
f 149/201/148 130/162/128 89/161/127 88/202/149
f 149/201/148 88/202/149 87/181/136 137/180/135
f 149/203/148 137/178/135 98/119/95 97/118/94
f 149/203/148 97/118/94 96/117/93 130/164/128
f 150/204/150 133/168/131 101/122/98 100/121/97
f 150/204/150 100/121/97 107/205/104 122/206/119
f 150/207/150 122/146/119 112/136/109 111/135/108
f 150/207/150 111/135/108 110/134/107 133/208/131
f 151/209/151 129/210/126 116/140/113 115/139/112
f 151/209/151 115/139/112 114/138/111 118/142/115
f 152/211/152 153/212/153 154/213/154 155/214/155
f 152/211/152 155/215/155 156/216/156 157/217/157
f 152/211/152 157/217/157 158/218/158 159/219/159
f 152/211/152 159/219/159 160/220/160 153/212/153
f 161/221/161 162/222/162 160/220/160 163/223/163
f 164/224/164 165/225/165 154/226/154 166/227/166
f 167/228/167 168/229/168 158/230/158 169/231/169
f 170/232/170 171/233/171 156/234/156 172/235/172
f 173/236/173 166/227/166 154/226/154 153/237/153
f 173/238/173 153/212/153 160/220/160 162/222/162
f 174/239/174 172/240/172 156/241/156 155/242/155
f 174/239/174 155/242/155 154/226/154 165/225/165
f 175/243/175 169/231/169 158/230/158 157/244/157
f 175/245/175 157/246/157 156/234/156 171/233/171
f 176/247/176 163/223/163 160/220/160 159/219/159
f 176/247/176 159/219/159 158/218/158 168/248/168
