# Blender v3.0.1 OBJ File: ''
# www.blender.org
mtllib grey.mtl
o Cube.001_Cube.002
v -0.144541 -1.076837 -0.000000
v -0.140471 -0.971759 0.111260
v -0.795160 0.006072 0.629809
v -0.591033 0.008826 0.000000
v 0.140471 -0.971759 0.111260
v 0.795160 0.006072 0.629809
v 0.000000 0.008826 0.468129
v 0.144541 -1.076837 -0.000000
v 0.140471 -0.971759 -0.111260
v 0.795160 0.006071 -0.629809
v 0.591033 0.008826 0.000000
v 0.000000 -1.076837 -0.114484
v -0.140471 -0.971759 -0.111260
v -0.795160 0.006071 -0.629809
v 0.000000 0.008826 -0.468130
v 0.000000 0.006072 0.000000
v -0.018387 -1.113497 -0.000000
v 0.018387 -1.113497 -0.000000
v -0.018387 -1.113497 -0.014564
v 0.018387 -1.113497 -0.014564
v 0.000000 -1.113497 -0.014564
vt 0.430800 0.860400
vt 0.429700 0.859300
vt 0.424200 0.844300
vt 0.431200 0.845800
vt 0.404000 0.880700
vt 0.402900 0.879700
vt 0.397300 0.864600
vt 0.404400 0.866100
vt 0.424000 0.850500
vt 0.423100 0.852200
vt 0.411000 0.860500
vt 0.411800 0.850200
vt 0.430900 0.870600
vt 0.436000 0.870600
vt 0.437800 0.880700
vt 0.430900 0.878100
vt 0.411000 0.854700
vt 0.410000 0.856200
vt 0.410000 0.853600
vt 0.410100 0.853500
vt 0.409100 0.861700
vt 0.411000 0.861700
vt 0.408900 0.862900
vt 0.408800 0.863000
vt 0.410100 0.847900
vt 0.411000 0.849800
vt 0.410100 0.850700
vt 0.410100 0.850600
vt 0.430900 0.863000
vt 0.437800 0.860400
vt 0.423100 0.848700
vt 0.411000 0.840300
vt 0.424000 0.860400
vt 0.425800 0.870600
vt 0.410000 0.859000
vt 0.411000 0.860500
vt 0.410000 0.861700
vt 0.410000 0.861700
vt 0.424000 0.880700
vt 0.405300 0.879700
vt 0.411000 0.864600
vt 0.432100 0.859300
vt 0.437800 0.844300
vn -0.8859 -0.4275 -0.1801
vn 0.8859 -0.4275 0.1801
vn 0.1183 -0.3545 -0.9275
vn -0.0000 1.0000 -0.0000
vn -0.2841 -0.7314 -0.6200
vn 0.5163 -0.7689 -0.3771
vn -0.5163 -0.7689 -0.3771
vn -0.1183 -0.3545 -0.9275
vn 0.2841 -0.7314 -0.6200
vn 0.8859 -0.4275 -0.1801
vn -0.8859 -0.4275 0.1801
usemtl None
s 1
f 1/1/1 2/2/1 3/3/1 4/4/1
f 8/5/2 9/6/2 10/7/2 11/8/2
f 12/9/3 13/10/3 14/11/3 15/12/3
f 16/13/4 7/14/4 6/15/4 11/16/4
f 1/17/5 13/18/5 19/19/5 17/20/5
f 12/21/6 9/22/6 20/23/6 21/24/6
f 13/25/7 12/26/7 21/27/7 19/28/7
f 4/29/4 3/30/4 7/14/4 16/13/4
f 9/31/8 12/9/8 15/12/8 10/32/8
f 14/33/4 4/29/4 16/13/4 15/34/4
f 9/35/9 8/36/9 18/37/9 20/38/9
f 15/34/4 16/13/4 11/16/4 10/39/4
f 5/40/10 8/5/10 11/8/10 6/41/10
f 13/42/11 1/1/11 4/4/11 14/43/11
o Cube.001
v -0.144541 1.183536 0.000000
v -0.140471 1.078458 -0.111260
v -0.795160 0.100627 -0.629809
v -0.591033 0.097873 0.000000
v 0.000000 1.183536 -0.114484
v 0.140471 1.078458 -0.111260
v 0.795160 0.100627 -0.629809
v 0.000000 0.097873 -0.468130
v 0.144541 1.183536 0.000000
v 0.140471 1.078458 0.111260
v 0.795160 0.100627 0.629809
v 0.591033 0.097873 0.000000
v 0.000000 1.183536 0.114484
v -0.140471 1.078458 0.111260
v -0.795160 0.100627 0.629809
v 0.000000 0.097873 0.468130
v 0.000000 0.100627 0.000000
v 0.000000 1.220196 0.000000
v 0.000000 1.220196 -0.014564
v -0.018387 1.220196 -0.014564
v -0.018387 1.220196 0.000000
v 0.018387 1.220196 -0.014564
v 0.018387 1.220196 0.000000
v -0.018387 1.220196 0.014564
v 0.018387 1.220196 0.014564
v 0.000000 1.220196 0.014564
v 0.000000 1.183536 -0.114484
v -0.140471 1.078458 -0.111260
v -0.018387 1.220196 -0.014564
v 0.000000 1.220196 -0.014564
v -0.140471 1.078458 0.111260
v 0.000000 1.183536 0.114484
v 0.000000 1.220196 0.014564
v -0.018387 1.220196 0.014564
vt 0.288900 0.177300
vt 0.686300 0.177300
vt 0.686300 0.574700
vt 0.288900 0.574700
vt 0.424200 0.918600
vt 0.443100 0.904500
vt 0.530900 0.773300
vt 0.424200 0.773000
vt 0.288900 0.177300
vt 0.686300 0.177300
vt 0.686300 0.574700
vt 0.288900 0.574700
vt 0.288900 0.177300
vt 0.686300 0.177300
vt 0.686300 0.574700
vt 0.288900 0.177300
vt 0.686300 0.177300
vt 0.686300 0.574700
vt 0.288900 0.574700
vt 0.686300 0.177300
vt 0.686300 0.574700
vt 0.288900 0.574700
vt 0.686300 0.177300
vt 0.686300 0.574700
vt 0.288900 0.177300
vt 0.686300 0.574700
vt 0.288900 0.574700
vt 0.288900 0.177300
vt 0.686300 0.177300
vt 0.686300 0.574700
vt 0.288900 0.574700
vt 0.288900 0.177300
vt 0.686300 0.177300
vt 0.288900 0.574700
vt 0.288900 0.177300
vt 0.686300 0.177300
vt 0.686300 0.574700
vt 0.288900 0.574700
vt 0.288900 0.177300
vt 0.288900 0.574700
vt 0.288900 0.177300
vt 0.686300 0.177300
vt 0.686300 0.574700
vt 0.288900 0.574700
vt 0.288900 0.177300
vt 0.686300 0.177300
vt 0.686300 0.574700
vt 0.686300 0.177300
vt 0.686300 0.574700
vt 0.288900 0.574700
vt 0.288900 0.177300
vt 0.686300 0.177300
vt 0.686300 0.574700
vt 0.288900 0.574700
vt 0.288900 0.177300
vt 0.686300 0.177300
vt 0.288900 0.574700
vt 0.288900 0.177300
vt 0.686300 0.177300
vt 0.686300 0.574700
vt 0.288900 0.574700
vt 0.288900 0.574700
vt 0.288900 0.177300
vt 0.686300 0.574700
vt 0.288900 0.574700
vt 0.475400 0.767100
vt 0.448900 0.747300
vt 0.471900 0.774000
vt 0.475400 0.774000
vt 0.448900 0.747300
vt 0.475400 0.767100
vt 0.475400 0.774000
vt 0.471900 0.774000
vn -0.8859 0.4275 0.1801
vn -0.1183 0.3545 -0.9275
vn 0.8859 0.4275 -0.1801
vn 0.0000 -1.0000 -0.0000
vn 0.0000 1.0000 0.0000
vn 0.2841 0.7314 -0.6200
vn -0.2841 0.7314 0.6200
vn 0.5163 0.7689 0.3771
vn 0.5163 0.7689 -0.3771
vn 0.1183 0.3545 -0.9275
vn -0.2841 0.7314 -0.6200
vn 0.2841 0.7314 0.6200
vn 0.8859 0.4275 0.1801
vn -0.8859 0.4275 -0.1801
vn -0.5163 0.7689 -0.3771
vn -0.5163 0.7689 0.3771
usemtl None
s 1
f 22/44/12 23/45/12 24/46/12 25/47/12
f 26/48/13 27/49/13 28/50/13 29/51/13
f 30/52/14 31/53/14 32/54/14 33/55/14
f 38/56/15 29/57/15 28/58/15 33/55/15
f 39/59/16 40/60/16 41/61/16 42/62/16
f 30/52/17 27/63/17 43/64/17 44/65/17
f 22/44/18 35/66/18 45/67/18 42/62/18
f 34/68/19 31/53/19 46/69/19 47/70/19
f 44/71/16 43/72/16 40/73/16 39/74/16
f 27/75/20 26/76/20 40/73/20 43/77/20
f 25/78/15 24/79/15 29/80/15 38/81/15
f 23/82/21 26/76/21 29/80/21 24/83/21
f 36/84/15 25/85/15 38/86/15 37/87/15
f 46/88/16 44/89/16 39/90/16 47/70/16
f 23/82/22 22/91/22 42/92/22 41/93/22
f 31/94/23 30/95/23 44/96/23 46/97/23
f 47/98/16 39/99/16 42/92/16 45/100/16
f 37/101/15 38/102/15 33/103/15 32/104/15
f 27/75/24 30/95/24 33/103/24 28/105/24
f 35/106/25 22/91/25 25/107/25 36/108/25
f 48/109/26 49/110/26 50/111/26 51/112/26
f 52/113/27 53/114/27 54/115/27 55/116/27
