# Blender v2.77 (sub 0) OBJ File: 'Blender.blend'
# www.blender.org
mtllib x.mtl
o Text.001_X.001
v -0.195250 -1.035880 -0.000000
v -0.502699 -0.153461 -0.000000
v -0.949898 -0.153461 -0.000000
v 0.028350 -0.768359 -0.000000
v 0.994619 -0.153461 -0.000000
v 0.539434 -0.153461 -0.000000
v 0.255942 -1.035880 -0.000000
v -0.949898 -1.946249 -0.000000
v 0.028350 -1.303401 -0.000000
v 1.046526 -1.946249 -0.000000
v -0.502699 -1.946249 -0.000000
v 0.591341 -1.946249 -0.000000
v -0.195250 0.910369 0.000000
v -0.502699 1.792788 0.000000
v -0.949898 1.792788 0.000000
v 0.028350 1.177890 0.000000
v 0.994619 1.792788 0.000000
v 0.539434 1.792788 0.000000
v 0.255942 0.910369 0.000000
v -0.949898 0.000000 0.000000
v 0.028350 0.642848 0.000000
v 1.046526 0.000000 0.000000
v -0.502699 0.000000 0.000000
v 0.591341 0.000000 0.000000
v -0.195250 -1.035880 0.190425
v -0.502699 -0.153461 0.190425
v -0.949898 -0.153461 0.190425
v 0.028350 -0.768359 0.190425
v 0.994619 -0.153461 0.190425
v 0.539434 -0.153461 0.190425
v 0.255942 -1.035880 0.190425
v -0.949898 -1.946249 0.190425
v 0.028350 -1.303401 0.190425
v 1.046526 -1.946249 0.190425
v -0.502699 -1.946249 0.190425
v 0.591341 -1.946249 0.190425
v -0.195250 0.910369 0.190426
v -0.502699 1.792788 0.190426
v -0.949898 1.792788 0.190426
v 0.028350 1.177890 0.190426
v 0.994619 1.792788 0.190426
v 0.539434 1.792788 0.190426
v 0.255942 0.910369 0.190426
v -0.949898 -0.000000 0.190426
v 0.028350 0.642848 0.190426
v 1.046526 -0.000000 0.190426
v -0.502699 -0.000000 0.190426
v 0.591341 -0.000000 0.190426
v -0.195250 -1.035880 0.381594
v -0.502699 -0.153461 0.381594
v -0.949898 -0.153461 0.381594
v 0.028350 -0.768359 0.381594
v 0.994619 -0.153461 0.381594
v 0.539434 -0.153461 0.381594
v 0.255942 -1.035880 0.381594
v -0.949898 -1.946249 0.381594
v 0.028350 -1.303401 0.381594
v 1.046526 -1.946249 0.381594
v -0.502699 -1.946249 0.381594
v 0.591341 -1.946249 0.381594
v -0.195250 0.910369 0.381594
v -0.502699 1.792788 0.381594
v -0.949898 1.792788 0.381594
v 0.028350 1.177890 0.381594
v 0.994619 1.792788 0.381594
v 0.539434 1.792788 0.381594
v 0.255942 0.910369 0.381594
v -0.949898 -0.000000 0.381594
v 0.028350 0.642848 0.381594
v 1.046526 -0.000000 0.381594
v -0.502699 -0.000000 0.381594
v 0.591341 -0.000000 0.381594
vn -0.4677 -0.0036 -0.8839
vn -0.7592 0.3497 -0.5490
vn 0.3251 0.7103 -0.6243
vn -0.0036 0.3844 -0.9232
vn -0.3323 0.7083 -0.6228
vn 0.7571 0.3536 -0.5493
vn 0.4648 0.0042 -0.8854
vn -0.7562 -0.3554 -0.5494
vn 0.0056 -0.3854 -0.9227
vn 0.7606 -0.3469 -0.5488
vn 0.3334 -0.7079 -0.6226
vn -0.3224 -0.7110 -0.6249
vn 0.4261 -0.9047 -0.0000
vn 0.0144 -0.9999 -0.0000
vn 0.0056 -0.3854 0.9227
vn 0.3334 -0.7079 0.6226
vn -1.0000 -0.0077 0.0000
vn -0.9050 -0.4253 -0.0000
vn -0.7562 -0.3554 0.5494
vn -0.4677 -0.0036 0.8839
vn -0.9083 0.4184 -0.0000
vn -0.7592 0.3497 0.5490
vn -0.4130 -0.9107 -0.0000
vn 0.9099 -0.4149 -0.0000
vn 0.7606 -0.3469 0.5488
vn -0.3224 -0.7110 0.6249
vn 0.4162 0.9093 0.0000
vn 0.3251 0.7103 0.6243
vn 1.0000 0.0091 -0.0000
vn 0.4648 0.0042 0.8854
vn -0.0094 1.0000 0.0000
vn -0.0036 0.3844 0.9232
vn -0.4247 0.9053 0.0000
vn -0.3323 0.7083 0.6228
vn 0.9061 0.4231 -0.0000
vn 0.7571 0.3536 0.5493
usemtl None
s 1
f 1//1 3//2 2//3
f 1//1 2//3 4//4
f 4//4 6//5 5//6
f 4//4 5//6 7//7
f 1//1 4//4 7//7
f 8//8 1//1 7//7
f 8//8 7//7 9//9
f 9//9 7//7 10//10
f 8//8 9//9 11//11
f 12//12 9//9 10//10
f 13//1 15//2 14//3
f 13//1 14//3 16//4
f 16//4 18//5 17//6
f 16//4 17//6 19//7
f 13//1 16//4 19//7
f 20//8 13//1 19//7
f 20//8 19//7 21//9
f 21//9 19//7 22//10
f 20//8 21//9 23//11
f 24//12 21//9 22//10
f 35//13 33//14 57//15 59//16
f 37//17 44//18 68//19 61//20
f 47//13 45//14 69//15 71//16
f 27//21 25//17 49//20 51//22
f 36//23 34//24 58//25 60//26
f 39//21 37//17 61//20 63//22
f 33//14 36//23 60//26 57//15
f 48//23 46//24 70//25 72//26
f 26//27 27//21 51//22 50//28
f 32//18 35//13 59//16 56//19
f 34//24 31//29 55//30 58//25
f 45//14 48//23 72//26 69//15
f 28//31 26//27 50//28 52//32
f 38//27 39//21 63//22 62//28
f 30//33 28//31 52//32 54//34
f 44//18 47//13 71//16 68//19
f 46//24 43//29 67//30 70//25
f 31//29 29//35 53//36 55//30
f 40//31 38//27 62//28 64//32
f 29//35 30//33 54//34 53//36
f 13//1 20//8 44//18 37//17
f 11//11 9//9 33//14 35//13
f 17//6 18//5 42//33 41//35
f 1//1 8//8 32//18 25//17
f 19//7 17//6 41//35 43//29
f 18//5 16//4 40//31 42//33
f 5//6 6//5 30//33 29//35
f 16//4 14//3 38//27 40//31
f 7//7 5//6 29//35 31//29
f 22//10 19//7 43//29 46//24
f 20//8 23//11 47//13 44//18
f 6//5 4//4 28//31 30//33
f 14//3 15//2 39//21 38//27
f 4//4 2//3 26//27 28//31
f 21//9 24//12 48//23 45//14
f 10//10 7//7 31//29 34//24
f 8//8 11//11 35//13 32//18
f 2//3 3//2 27//21 26//27
f 24//12 22//10 46//24 48//23
f 9//9 12//12 36//23 33//14
f 15//2 13//1 37//17 39//21
f 12//12 10//10 34//24 36//23
f 3//2 1//1 25//17 27//21
f 23//11 21//9 45//14 47//13
f 49//20 50//28 51//22
f 49//20 52//32 50//28
f 52//32 53//36 54//34
f 52//32 55//30 53//36
f 49//20 55//30 52//32
f 56//19 55//30 49//20
f 56//19 57//15 55//30
f 57//15 58//25 55//30
f 56//19 59//16 57//15
f 60//26 58//25 57//15
f 61//20 62//28 63//22
f 61//20 64//32 62//28
f 64//32 65//36 66//34
f 64//32 67//30 65//36
f 61//20 67//30 64//32
f 68//19 67//30 61//20
f 68//19 69//15 67//30
f 69//15 70//25 67//30
f 68//19 71//16 69//15
f 72//26 70//25 69//15
f 41//35 42//33 66//34 65//36
f 25//17 32//18 56//19 49//20
f 43//29 41//35 65//36 67//30
f 42//33 40//31 64//32 66//34
